<svg width="800" height="400"><g transform="translate(40,20)"><g transform="translate(0,340)" fill="none" font-size="10" font-family="sans-serif" text-anchor="middle"><path class="domain" stroke="currentColor" d="M0.5,6V0.5H730.5V6"></path><g class="tick" opacity="1" transform="translate(27.386160714285715,0)"><line stroke="currentColor" y2="6"></line><text fill="currentColor" y="9" dy="0.71em">Mar 10</text></g><g class="tick" opacity="1" transform="translate(73.01116071428571,0)"><line stroke="currentColor" y2="6"></line><text fill="currentColor" y="9" dy="0.71em">Mar 17</text></g><g class="tick" opacity="1" transform="translate(118.63616071428572,0)"><line stroke="currentColor" y2="6"></line><text fill="currentColor" y="9" dy="0.71em">Mar 24</text></g><g class="tick" opacity="1" transform="translate(164.26116071428572,0)"><line stroke="currentColor" y2="6"></line><text fill="currentColor" y="9" dy="0.71em">Mar 31</text></g><g class="tick" opacity="1" transform="translate(209.88616071428572,0)"><line stroke="currentColor" y2="6"></line><text fill="currentColor" y="9" dy="0.71em">Apr 07</text></g><g class="tick" opacity="1" transform="translate(255.51116071428572,0)"><line stroke="currentColor" y2="6"></line><text fill="currentColor" y="9" dy="0.71em">Apr 14</text></g><g class="tick" opacity="1" transform="translate(301.1361607142857,0)"><line stroke="currentColor" y2="6"></line><text fill="currentColor" y="9" dy="0.71em">Apr 21</text></g><g class="tick" opacity="1" transform="translate(346.7611607142857,0)"><line stroke="currentColor" y2="6"></line><text fill="currentColor" y="9" dy="0.71em">Apr 28</text></g><g class="tick" opacity="1" transform="translate(392.38616071428567,0)"><line stroke="currentColor" y2="6"></line><text fill="currentColor" y="9" dy="0.71em">May 05</text></g><g class="tick" opacity="1" transform="translate(438.01116071428567,0)"><line stroke="currentColor" y2="6"></line><text fill="currentColor" y="9" dy="0.71em">May 12</text></g><g class="tick" opacity="1" transform="translate(483.63616071428567,0)"><line stroke="currentColor" y2="6"></line><text fill="currentColor" y="9" dy="0.71em">May 19</text></g><g class="tick" opacity="1" transform="translate(529.2611607142857,0)"><line stroke="currentColor" y2="6"></line><text fill="currentColor" y="9" dy="0.71em">May 26</text></g><g class="tick" opacity="1" transform="translate(574.8861607142857,0)"><line stroke="currentColor" y2="6"></line><text fill="currentColor" y="9" dy="0.71em">Jun 02</text></g><g class="tick" opacity="1" transform="translate(620.5111607142857,0)"><line stroke="currentColor" y2="6"></line><text fill="currentColor" y="9" dy="0.71em">Jun 09</text></g><g class="tick" opacity="1" transform="translate(666.1361607142857,0)"><line stroke="currentColor" y2="6"></line><text fill="currentColor" y="9" dy="0.71em">Jun 16</text></g><g class="tick" opacity="1" transform="translate(711.7611607142857,0)"><line stroke="currentColor" y2="6"></line><text fill="currentColor" y="9" dy="0.71em">Jun 23</text></g></g><g fill="none" font-size="10" font-family="sans-serif" text-anchor="end"><path class="domain" stroke="currentColor" d="M-6,340.5H0.5V0.5H-6"></path><g class="tick" opacity="1" transform="translate(0,340.5)"><line stroke="currentColor" x2="-6"></line><text fill="currentColor" x="-9" dy="0.32em">0.0</text></g><g class="tick" opacity="1" transform="translate(0,317.8333333333333)"><line stroke="currentColor" x2="-6"></line><text fill="currentColor" x="-9" dy="0.32em">0.2</text></g><g class="tick" opacity="1" transform="translate(0,295.1666666666667)"><line stroke="currentColor" x2="-6"></line><text fill="currentColor" x="-9" dy="0.32em">0.4</text></g><g class="tick" opacity="1" transform="translate(0,272.5)"><line stroke="currentColor" x2="-6"></line><text fill="currentColor" x="-9" dy="0.32em">0.6</text></g><g class="tick" opacity="1" transform="translate(0,249.83333333333334)"><line stroke="currentColor" x2="-6"></line><text fill="currentColor" x="-9" dy="0.32em">0.8</text></g><g class="tick" opacity="1" transform="translate(0,227.16666666666669)"><line stroke="currentColor" x2="-6"></line><text fill="currentColor" x="-9" dy="0.32em">1.0</text></g><g class="tick" opacity="1" transform="translate(0,204.50000000000003)"><line stroke="currentColor" x2="-6"></line><text fill="currentColor" x="-9" dy="0.32em">1.2</text></g><g class="tick" opacity="1" transform="translate(0,181.83333333333337)"><line stroke="currentColor" x2="-6"></line><text fill="currentColor" x="-9" dy="0.32em">1.4</text></g><g class="tick" opacity="1" transform="translate(0,159.16666666666666)"><line stroke="currentColor" x2="-6"></line><text fill="currentColor" x="-9" dy="0.32em">1.6</text></g><g class="tick" opacity="1" transform="translate(0,136.5)"><line stroke="currentColor" x2="-6"></line><text fill="currentColor" x="-9" dy="0.32em">1.8</text></g><g class="tick" opacity="1" transform="translate(0,113.83333333333334)"><line stroke="currentColor" x2="-6"></line><text fill="currentColor" x="-9" dy="0.32em">2.0</text></g><g class="tick" opacity="1" transform="translate(0,91.16666666666664)"><line stroke="currentColor" x2="-6"></line><text fill="currentColor" x="-9" dy="0.32em">2.2</text></g><g class="tick" opacity="1" transform="translate(0,68.50000000000003)"><line stroke="currentColor" x2="-6"></line><text fill="currentColor" x="-9" dy="0.32em">2.4</text></g><g class="tick" opacity="1" transform="translate(0,45.83333333333332)"><line stroke="currentColor" x2="-6"></line><text fill="currentColor" x="-9" dy="0.32em">2.6</text></g><g class="tick" opacity="1" transform="translate(0,23.1666666666667)"><line stroke="currentColor" x2="-6"></line><text fill="currentColor" x="-9" dy="0.32em">2.8</text></g><g class="tick" opacity="1" transform="translate(0,0.5)"><line stroke="currentColor" x2="-6"></line><text fill="currentColor" x="-9" dy="0.32em">3.0</text></g></g><rect class="bar" x="0" y="0" width="169.27901785714286" height="340" fill="steelblue"></rect><rect class="bar" x="170.27901785714286" y="226.66666666666669" width="194.53571428571425" height="113.33333333333331" fill="steelblue"></rect><rect class="bar" x="365.8147321428571" y="0" width="201.05357142857144" height="340" fill="steelblue"></rect><rect class="bar" x="567.8683035714286" y="0" width="161.13169642857144" height="340" fill="steelblue"></rect><text x="85.13950892857143" y="-5" text-anchor="middle">3</text><text x="268.046875" y="221.66666666666669" text-anchor="middle">1</text><text x="466.84151785714283" y="-5" text-anchor="middle">3</text><text x="648.9341517857142" y="-5" text-anchor="middle">3</text></g></svg>